<?xml version="1.0" standalone="no"?>
<!DOCTYPE svg PUBLIC "-//W3C//DTD SVG 20010904//EN"
 "http://www.w3.org/TR/2001/REC-SVG-20010904/DTD/svg10.dtd">
<svg version="1.0" xmlns="http://www.w3.org/2000/svg"
 width="700.000000pt" height="700.000000pt" viewBox="0 0 700.000000 700.000000"
 preserveAspectRatio="xMidYMid meet">
<metadata>
Created by potrace 1.14, written by Peter Selinger 2001-2017
</metadata>
<g transform="translate(0.000000,700.000000) scale(0.100000,-0.100000)"
fill="#000000" stroke="none">
<path d="M3215 6994 c-527 -52 -991 -193 -1418 -433 -575 -321 -1037 -783
-1359 -1358 -213 -382 -345 -781 -415 -1258 -14 -95 -18 -187 -18 -445 0 -348
7 -419 61 -695 198 -995 833 -1864 1731 -2366 381 -214 782 -346 1258 -416
152 -22 706 -25 855 -5 691 95 1270 339 1784 752 639 514 1087 1249 1240 2038
55 283 61 346 61 692 0 346 -6 409 -61 692 -148 762 -575 1482 -1179 1989
-517 433 -1119 699 -1800 795 -114 16 -633 28 -740 18z m638 -1684 c271 -52
525 -186 660 -348 260 -311 154 -787 -191 -861 -175 -37 -321 11 -558 181
-158 113 -220 143 -280 134 -77 -10 -114 -51 -114 -126 0 -106 76 -158 376
-261 210 -72 327 -122 454 -193 290 -165 451 -349 533 -611 36 -115 49 -220
49 -385 -2 -340 -91 -583 -292 -794 -222 -233 -487 -347 -876 -378 -382 -30
-732 52 -1002 234 -190 129 -332 311 -377 488 -19 75 -22 221 -5 294 49 219
260 380 495 379 145 0 233 -39 445 -195 222 -164 318 -203 402 -164 87 41 101
181 26 253 -43 41 -134 82 -398 178 -257 93 -353 136 -462 207 -210 137 -348
324 -408 553 -46 177 -44 427 5 620 112 446 508 753 1049 815 114 14 348 3
469 -20z"/>
</g>
</svg>
